<svg xmlns="http://www.w3.org/2000/svg" width="91.429" height="64" viewBox="0 0 91.429 64">
  <g id="Group_15" data-name="Group 15" transform="translate(-2 -2)">
    <path id="Path_74" data-name="Path 74" d="M8.26,65.784V52H6V65.784Z" transform="translate(-0.343 -4.286)" fill="#152c4f"/>
    <path id="Path_75" data-name="Path 75" d="M9.984,61.6a4.556,4.556,0,0,0,4.76,4.817,4.817,4.817,0,0,0,0-9.634A4.556,4.556,0,0,0,9.984,61.6Zm2.278,0a2.5,2.5,0,1,1,2.482,2.8A2.516,2.516,0,0,1,12.263,61.6Z" transform="translate(-0.684 -4.696)" fill="#152c4f"/>
    <path id="Path_76" data-name="Path 76" d="M21.229,61.41A4.256,4.256,0,0,0,25.527,66a3.562,3.562,0,0,0,3.056-1.427v1.556a2.339,2.339,0,0,1-2.519,2.5,2.209,2.209,0,0,1-2.5-1.89H21.285a4.412,4.412,0,0,0,4.649,3.946,4.591,4.591,0,0,0,4.853-4.965V57.038h-2l-.13,1.241A3.42,3.42,0,0,0,25.6,56.742,4.344,4.344,0,0,0,21.229,61.41Zm2.3-.056a2.415,2.415,0,0,1,2.389-2.631,2.51,2.51,0,0,1,2.593,2.631,2.545,2.545,0,0,1-2.593,2.686A2.464,2.464,0,0,1,23.526,61.355Z" transform="translate(-1.648 -4.692)" fill="#152c4f"/>
    <path id="Path_77" data-name="Path 77" d="M32.906,61.6a4.556,4.556,0,0,0,4.76,4.817,4.817,4.817,0,0,0,0-9.634A4.556,4.556,0,0,0,32.906,61.6Zm2.278,0a2.5,2.5,0,1,1,2.482,2.8A2.516,2.516,0,0,1,35.185,61.6Z" transform="translate(-2.649 -4.696)" fill="#152c4f"/>
    <path id="Path_78" data-name="Path 78" d="M45.87,54.767a1.343,1.343,0,1,0,0-2.686,1.343,1.343,0,0,0,0,2.686ZM44.74,65.791H47V56.639H44.74Z" transform="translate(-3.646 -4.293)" fill="#152c4f"/>
    <path id="Path_79" data-name="Path 79" d="M49.4,70.434h2.2v-5.5a3.672,3.672,0,0,0,3.186,1.5c2.7,0,4.316-2.075,4.279-4.928-.055-2.872-1.7-4.743-4.3-4.743a3.531,3.531,0,0,0-3.2,1.667l-.13-1.389H49.4Zm2.3-8.819a2.543,2.543,0,0,1,2.575-2.8,2.8,2.8,0,1,1-2.575,2.8Z" transform="translate(-4.063 -4.694)" fill="#152c4f"/>
    <path id="Path_80" data-name="Path 80" d="M60.6,63.45c.074,1.816,1.482,2.983,3.668,2.983,2.149,0,3.612-1.149,3.612-2.927a2.608,2.608,0,0,0-2.315-2.575l-1.612-.389c-.685-.185-1.148-.426-1.148-1.019,0-.63.5-1.075,1.315-1.075a1.254,1.254,0,0,1,1.408,1.278h2.056a3.082,3.082,0,0,0-3.408-2.964c-1.963,0-3.427,1.149-3.427,2.89,0,1.186.685,2.168,2.445,2.631l1.593.408c.593.167.963.445.963.963,0,.723-.685,1.056-1.519,1.056-1,0-1.574-.463-1.574-1.26Z" transform="translate(-5.023 -4.694)" fill="#152c4f"/>
    <path id="Path_81" data-name="Path 81" d="M73.373,66.459a3.551,3.551,0,0,0,2.964-1.427l.148,1.186H78.6V57.066h-2.26v4.8c0,1.649-.63,2.575-2.112,2.575-1.148,0-1.945-.556-1.945-2.446V57.066h-2.26v5.725C70.021,64.977,71.206,66.459,73.373,66.459Z" transform="translate(-5.83 -4.72)" fill="#152c4f"/>
    <path id="Path_82" data-name="Path 82" d="M83.842,66.192V60.93a1.921,1.921,0,0,1,1.945-2.186c1.074,0,1.778.685,1.778,1.982v5.465h2.2V60.949c0-1.5.852-2.2,1.926-2.2a1.731,1.731,0,0,1,1.8,1.982v5.465h2.186V60.208a3.115,3.115,0,0,0-3.39-3.446A3,3,0,0,0,89.362,58.5a3.343,3.343,0,0,0-5.594-.426l-.111-1.037H81.582v9.152Z" transform="translate(-6.821 -4.694)" fill="#152c4f"/>
    <path id="Path_83" data-name="Path 83" d="M41.76,35.922c-2.977,5.358-9.039,7.906-15.168,7.906H2c25.6-3.2,43.429-16,45.714-33.829C50,27.829,67.829,40.629,93.429,43.829H68.837c-6.129,0-12.191-2.549-15.168-7.906A49.578,49.578,0,0,1,47.714,16.4,49.578,49.578,0,0,1,41.76,35.922Z" transform="translate(0 -0.686)" fill="#1a4688"/>
    <path id="Path_84" data-name="Path 84" d="M29.582,33.343q-2.154,1.213-4.528,2.275A26.7,26.7,0,0,1,28.1,13.97a25.843,25.843,0,0,1,9.09-8.688,25.1,25.1,0,0,1,24.133-.376,25.789,25.789,0,0,1,9.344,8.4,26.689,26.689,0,0,1,3.48,22.311q-2.373-1.061-4.528-2.275a21.52,21.52,0,0,0-3.03-17.155,20.8,20.8,0,0,0-7.535-6.774,20.239,20.239,0,0,0-19.461.3,20.839,20.839,0,0,0-7.33,7.006,21.532,21.532,0,0,0-2.681,16.621Z" transform="translate(-1.886 0)" fill="#7fb5e6"/>
  </g>
</svg>
