<svg xmlns="http://www.w3.org/2000/svg" width="128" height="49.375" viewBox="0 0 128 49.375">
  <g id="Group_14" data-name="Group 14" transform="translate(-0.522)">
    <path id="Path_61" data-name="Path 61" d="M48.136,38.607h3.375V25.876H48.136Zm0-14.717h3.375V20.862H48.136Z" transform="translate(11.16 4.89)"/>
    <path id="Path_62" data-name="Path 62" d="M52.632,41.891h3.375V36.282h.05a4.1,4.1,0,0,0,3.673,1.812c3.276,0,5.51-2.606,5.51-6.726,0-3.971-2.159-6.726-5.534-6.726a4.45,4.45,0,0,0-3.748,1.936h-.074V24.99H52.632Zm6.378-6.6c-2.01,0-3.078-1.514-3.078-3.822,0-2.283.844-4.1,2.953-4.1,2.085,0,2.929,1.688,2.929,4.1S60.723,35.289,59.011,35.289Z" transform="translate(12.213 5.775)"/>
    <path id="Path_63" data-name="Path 63" d="M69.432,38.094c3.177,0,5.361-1.539,5.361-4.1,0-2.978-2.358-3.574-4.492-4.02-1.812-.372-3.5-.472-3.5-1.564,0-.918.869-1.415,2.184-1.415,1.439,0,2.308.5,2.457,1.861h3.053c-.248-2.556-2.11-4.219-5.46-4.219-2.9,0-5.187,1.315-5.187,4.07,0,2.78,2.234,3.4,4.517,3.847,1.737.347,3.35.472,3.35,1.688,0,.893-.844,1.464-2.333,1.464-1.514,0-2.556-.645-2.78-2.11H63.475C63.674,36.307,65.734,38.094,69.432,38.094Z" transform="translate(14.755 5.775)"/>
    <path id="Path_64" data-name="Path 64" d="M85.188,37.655V24.924H81.813V32.27a2.571,2.571,0,0,1-2.556,2.879c-1.439,0-2.11-.819-2.11-2.308V24.924H73.8v8.488c0,2.78,1.588,4.591,4.418,4.591a4.086,4.086,0,0,0,3.648-1.837h.074v1.489Z" transform="translate(17.174 5.841)"/>
    <path id="Path_65" data-name="Path 65" d="M84.794,37.721h3.375v-7.4c0-1.688.918-2.78,2.283-2.78,1.241,0,1.961.744,1.961,2.184v7.991h3.375v-7.4c0-1.688.869-2.78,2.283-2.78,1.241,0,1.961.744,1.961,2.184v7.991h3.375V29.159c0-2.78-1.514-4.517-4.194-4.517a4.441,4.441,0,0,0-3.822,2.234h-.05a3.8,3.8,0,0,0-3.524-2.234,4.157,4.157,0,0,0-3.7,2.06h-.074V24.99H84.794Z" transform="translate(19.751 5.775)"/>
    <path id="Path_66" data-name="Path 66" d="M48.176,20.941h3.375V3.2H48.176Z" transform="translate(11.169 0.749)"/>
    <path id="Path_67" data-name="Path 67" d="M58.859,20.428A6.473,6.473,0,0,0,65.511,13.7a6.652,6.652,0,1,0-13.3,0A6.473,6.473,0,0,0,58.859,20.428Zm0-2.581c-2.085,0-3.226-1.663-3.226-4.145s1.142-4.169,3.226-4.169c2.06,0,3.226,1.688,3.226,4.169S60.919,17.847,58.859,17.847Z" transform="translate(12.114 1.635)"/>
    <path id="Path_68" data-name="Path 68" d="M69.983,24.4a6.662,6.662,0,0,0,4.591-1.44,4.941,4.941,0,0,0,1.514-3.872V7.324H72.837v1.34h-.05a4.1,4.1,0,0,0-3.524-1.688c-3.226,0-5.51,2.432-5.51,6.229a5.722,5.722,0,0,0,5.609,6.08A4.115,4.115,0,0,0,72.688,17.8h.074v1.39c0,1.737-.918,2.656-2.829,2.656-1.564,0-2.283-.62-2.556-1.415h-3.35C64.374,22.909,66.508,24.4,69.983,24.4Zm-.05-7.818c-1.737,0-2.879-1.266-2.879-3.425,0-2.134,1.142-3.475,2.854-3.475,2.035,0,3.028,1.588,3.028,3.45C72.936,15.017,72.068,16.581,69.933,16.581Z" transform="translate(14.82 1.635)"/>
    <path id="Path_69" data-name="Path 69" d="M81.655,20.428A6.473,6.473,0,0,0,88.307,13.7a6.652,6.652,0,1,0-13.3,0A6.473,6.473,0,0,0,81.655,20.428Zm0-2.581c-2.085,0-3.226-1.663-3.226-4.145s1.142-4.169,3.226-4.169c2.06,0,3.226,1.688,3.226,4.169S83.715,17.847,81.655,17.847Z" transform="translate(17.457 1.635)"/>
    <path id="Path_70" data-name="Path 70" d="M88.178,14.183h14.593v-2.9H88.178Z" transform="translate(20.544 2.643)"/>
    <path id="Path_71" data-name="Path 71" d="M100.867,23.368a1.034,1.034,0,0,1,1.034-1.034h2.068a1.034,1.034,0,1,1,0,2.068H101.9A1.034,1.034,0,0,1,100.867,23.368Z" transform="translate(23.518 5.234)"/>
    <path id="Path_72" data-name="Path 72" d="M25.209,0A24.687,24.687,0,1,1,.522,24.687,24.687,24.687,0,0,1,25.209,0Zm-.892,1.847c-2.816.4-5.5,2.659-7.58,6.444a25.7,25.7,0,0,0-1.624,3.62,41.3,41.3,0,0,1,9.2-1.2ZM13.027,12.505a28.5,28.5,0,0,1,2.146-5.073A18.114,18.114,0,0,1,18.81,2.691a22.951,22.951,0,0,0-15.6,15.6,18.114,18.114,0,0,1,4.741-3.637A28.5,28.5,0,0,1,13.027,12.505Zm-.593,2.086a41.305,41.305,0,0,0-1.2,9.2H2.369c.4-2.816,2.659-5.5,6.444-7.58A25.7,25.7,0,0,1,12.434,14.592Zm.59,9.2a38.852,38.852,0,0,1,1.435-9.859A38.853,38.853,0,0,1,24.317,12.5v3.855a13.135,13.135,0,0,1-7.44,7.439ZM11.238,25.58H2.369c.4,2.816,2.659,5.5,6.444,7.58a25.7,25.7,0,0,0,3.62,1.624A41.305,41.305,0,0,1,11.238,25.58Zm3.22,9.859a38.852,38.852,0,0,1-1.435-9.859h3.854a13.134,13.134,0,0,1,7.44,7.439v3.855A38.853,38.853,0,0,1,14.458,35.439ZM13.027,36.87a28.5,28.5,0,0,1-5.073-2.146,18.114,18.114,0,0,1-4.741-3.637,22.951,22.951,0,0,0,15.6,15.6,18.114,18.114,0,0,1-3.637-4.741A28.5,28.5,0,0,1,13.027,36.87Zm11.29,10.658c-2.816-.4-5.5-2.659-7.58-6.444a25.7,25.7,0,0,1-1.624-3.62,41.3,41.3,0,0,0,9.2,1.2Zm7.292-.843a18.117,18.117,0,0,0,3.637-4.741,28.506,28.506,0,0,0,2.146-5.073,28.5,28.5,0,0,0,5.074-2.146,18.113,18.113,0,0,0,4.741-3.637A22.951,22.951,0,0,1,31.608,46.684Zm3.7-9.222a25.7,25.7,0,0,1-1.624,3.62c-2.082,3.785-4.763,6.048-7.58,6.444V38.658A41.3,41.3,0,0,0,35.3,37.463Zm2.679-2.679A25.7,25.7,0,0,0,41.6,33.16c3.785-2.082,6.048-4.763,6.444-7.58H39.18A41.3,41.3,0,0,1,37.984,34.783Zm-.589-9.2a38.852,38.852,0,0,1-1.435,9.859A38.852,38.852,0,0,1,26.1,36.873V33.021a13.134,13.134,0,0,1,7.441-7.442ZM39.18,23.8h8.869c-.4-2.816-2.659-5.5-6.444-7.58a25.7,25.7,0,0,0-3.62-1.624A41.3,41.3,0,0,1,39.18,23.8Zm-3.22-9.859A38.852,38.852,0,0,1,37.395,23.8H33.542A13.134,13.134,0,0,1,26.1,16.354V12.5A38.852,38.852,0,0,1,35.96,13.936Zm1.431-1.431a28.5,28.5,0,0,1,5.074,2.146,18.113,18.113,0,0,1,4.741,3.637,22.951,22.951,0,0,0-15.6-15.6,18.117,18.117,0,0,1,3.637,4.741A28.508,28.508,0,0,1,37.391,12.505ZM26.1,1.847c2.816.4,5.5,2.659,7.58,6.444a25.7,25.7,0,0,1,1.624,3.62,41.3,41.3,0,0,0-9.2-1.2Z" fill-rule="evenodd"/>
  </g>
</svg>
