<svg id="Group_13" data-name="Group 13" xmlns="http://www.w3.org/2000/svg" width="128" height="25.402" viewBox="0 0 128 25.402">
  <path id="Path_49" data-name="Path 49" d="M16.229,7.421A6.351,6.351,0,0,0,12.7,6.351V0A12.7,12.7,0,1,1,0,12.7H6.351a6.351,6.351,0,1,0,9.879-5.28Z" transform="translate(0 0)" fill="#007dfc" fill-rule="evenodd"/>
  <path id="Path_50" data-name="Path 50" d="M6.351,0a6.351,6.351,0,0,1-.483,2.43,6.351,6.351,0,0,1-1.377,2.06A6.35,6.35,0,0,1,2.43,5.867,6.351,6.351,0,0,1,0,6.351V12.7a12.7,12.7,0,0,0,4.861-.967A12.7,12.7,0,0,0,8.981,8.981a12.7,12.7,0,0,0,2.753-4.121A12.7,12.7,0,0,0,12.7,0Z" transform="translate(0 0)" fill="#007dfc" fill-rule="evenodd"/>
  <path id="Path_51" data-name="Path 51" d="M123.848,14.452h-3.081V24.24h3.081Z" transform="translate(-44.073 -5.274)" fill="#007dfc"/>
  <path id="Path_52" data-name="Path 52" d="M121.041,9.9a1.638,1.638,0,0,0,1.208.483,1.573,1.573,0,0,0,1.188-.483,1.721,1.721,0,0,0,.464-1.208,1.676,1.676,0,0,0-.464-1.208A1.573,1.573,0,0,0,122.248,7a1.638,1.638,0,0,0-1.208.483,1.676,1.676,0,0,0-.464,1.208A1.721,1.721,0,0,0,121.041,9.9Z" transform="translate(-44.004 -2.555)" fill="#007dfc"/>
  <path id="Path_53" data-name="Path 53" d="M51.156,21.694V7.476h3.162V18.915h6.3v2.779Z" transform="translate(-18.669 -2.728)" fill="#007dfc"/>
  <path id="Path_54" data-name="Path 54" d="M71.949,24.334a5.662,5.662,0,0,1-2.739-.665A5.172,5.172,0,0,1,67.3,21.817a4.969,4.969,0,0,1-.7-2.618,4.865,4.865,0,0,1,.7-2.6,5.068,5.068,0,0,1,1.913-1.813,5.457,5.457,0,0,1,2.739-.685,5.589,5.589,0,0,1,2.739.665A5.019,5.019,0,0,1,76.6,16.6a4.864,4.864,0,0,1,.7,2.6,4.968,4.968,0,0,1-.7,2.618,5.171,5.171,0,0,1-1.913,1.853A5.588,5.588,0,0,1,71.949,24.334Zm0-2.8a2.351,2.351,0,0,0,1.168-.282,1.974,1.974,0,0,0,.765-.826,2.629,2.629,0,0,0,.282-1.229,2.393,2.393,0,0,0-.282-1.188,1.974,1.974,0,0,0-.785-.806,2.121,2.121,0,0,0-1.148-.3,2.187,2.187,0,0,0-1.148.3,1.975,1.975,0,0,0-.785.806,2.509,2.509,0,0,0-.282,1.208,2.585,2.585,0,0,0,.282,1.208,2.112,2.112,0,0,0,.785.826A2.309,2.309,0,0,0,71.949,21.535Z" transform="translate(-24.302 -5.147)" fill="#007dfc" fill-rule="evenodd"/>
  <path id="Path_55" data-name="Path 55" d="M86.183,27.951a6.742,6.742,0,0,0,2.84.564,6.093,6.093,0,0,0,2.8-.624,4.837,4.837,0,0,0,1.933-1.732,4.772,4.772,0,0,0,.705-2.618v-9.2H91.439v.658a3.255,3.255,0,0,0-.765-.476,4.042,4.042,0,0,0-1.792-.383,4.516,4.516,0,0,0-4.048,2.376,4.973,4.973,0,0,0-.6,2.457,5.046,5.046,0,0,0,.6,2.457,4.607,4.607,0,0,0,1.651,1.752,4.479,4.479,0,0,0,2.4.644,4.125,4.125,0,0,0,1.792-.383,3.591,3.591,0,0,0,.7-.437v.618a1.972,1.972,0,0,1-.665,1.591,2.632,2.632,0,0,1-1.792.564,3.616,3.616,0,0,1-1.591-.322,3.672,3.672,0,0,1-1.168-.947L84.27,26.4A4.563,4.563,0,0,0,86.183,27.951Zm4.39-7.149a2.09,2.09,0,0,1-1.108.282,2.2,2.2,0,0,1-1.128-.282,1.987,1.987,0,0,1-.725-.765,2.281,2.281,0,0,1-.262-1.067,2.246,2.246,0,0,1,.262-1.088,1.944,1.944,0,0,1,.745-.765,2.157,2.157,0,0,1,1.108-.282,2.09,2.09,0,0,1,1.108.282,1.81,1.81,0,0,1,.725.765,2.39,2.39,0,0,1,0,2.175A1.841,1.841,0,0,1,90.573,20.8Z" transform="translate(-30.739 -5.159)" fill="#007dfc" fill-rule="evenodd"/>
  <path id="Path_56" data-name="Path 56" d="M107.472,24.334a5.661,5.661,0,0,1-2.739-.665,5.17,5.17,0,0,1-1.913-1.853,4.968,4.968,0,0,1-.7-2.618,4.864,4.864,0,0,1,.7-2.6,5.066,5.066,0,0,1,1.913-1.813,5.456,5.456,0,0,1,2.739-.685,5.587,5.587,0,0,1,2.738.665,5.018,5.018,0,0,1,1.913,1.833,4.864,4.864,0,0,1,.7,2.6,4.968,4.968,0,0,1-.7,2.618,5.17,5.17,0,0,1-1.913,1.853A5.586,5.586,0,0,1,107.472,24.334Zm0-2.8a2.352,2.352,0,0,0,1.168-.282,1.977,1.977,0,0,0,.765-.826,2.629,2.629,0,0,0,.282-1.229,2.393,2.393,0,0,0-.282-1.188,1.973,1.973,0,0,0-.786-.806,2.12,2.12,0,0,0-1.148-.3,2.186,2.186,0,0,0-1.148.3,1.973,1.973,0,0,0-.786.806,2.509,2.509,0,0,0-.282,1.208,2.585,2.585,0,0,0,.282,1.208,2.111,2.111,0,0,0,.786.826A2.308,2.308,0,0,0,107.472,21.535Z" transform="translate(-37.266 -5.147)" fill="#007dfc" fill-rule="evenodd"/>
  <path id="Path_57" data-name="Path 57" d="M134.041,24.326a4.26,4.26,0,0,1-1.812-.383,3.85,3.85,0,0,1-.785-.481v4.791H128.4V14.337h3.081v.676a3.81,3.81,0,0,1,.745-.474,4.079,4.079,0,0,1,1.812-.4,4.58,4.58,0,0,1,4.149,2.477,5.386,5.386,0,0,1,.624,2.618,5.386,5.386,0,0,1-.624,2.618,4.58,4.58,0,0,1-4.149,2.477Zm-.563-2.779a2.131,2.131,0,0,0,1.933-1.128,2.466,2.466,0,0,0,.282-1.188,2.509,2.509,0,0,0-.282-1.208,1.973,1.973,0,0,0-.786-.806,2.082,2.082,0,0,0-1.128-.3,2.185,2.185,0,0,0-1.148.3,2.012,2.012,0,0,0-.765.806,2.509,2.509,0,0,0-.282,1.208,2.62,2.62,0,0,0,.262,1.188,2.111,2.111,0,0,0,.786.826A2.148,2.148,0,0,0,133.477,21.547Z" transform="translate(-46.86 -5.159)" fill="#007dfc" fill-rule="evenodd"/>
  <path id="Path_58" data-name="Path 58" d="M147.96,24.1a6.726,6.726,0,0,0,1.711.222,4.547,4.547,0,0,0,2.9-.846,2.734,2.734,0,0,0,1.087-2.276,2.844,2.844,0,0,0-.342-1.49,2.663,2.663,0,0,0-.886-.926,5.29,5.29,0,0,0-1.148-.544q-.6-.2-1.148-.342a4.153,4.153,0,0,1-.887-.322.543.543,0,0,1-.342-.483.455.455,0,0,1,.262-.423,1.525,1.525,0,0,1,.786-.161,3.014,3.014,0,0,1,1.108.222,2.575,2.575,0,0,1,1.047.765l1.752-1.772a4.045,4.045,0,0,0-1.732-1.269,5.831,5.831,0,0,0-2.3-.443,4.972,4.972,0,0,0-2.074.4,3.232,3.232,0,0,0-1.37,1.108,2.757,2.757,0,0,0-.483,1.631,2.873,2.873,0,0,0,.342,1.47,2.547,2.547,0,0,0,.886.886,5.145,5.145,0,0,0,1.148.5l1.148.342a3.492,3.492,0,0,1,.886.342.58.58,0,0,1,.363.544.491.491,0,0,1-.3.443,1.7,1.7,0,0,1-.826.161,3.671,3.671,0,0,1-1.45-.282,3.531,3.531,0,0,1-1.148-.826L145.2,22.507a5.468,5.468,0,0,0,1.209.967A6.816,6.816,0,0,0,147.96,24.1Z" transform="translate(-52.99 -5.112)" fill="#007dfc"/>
  <path id="Path_59" data-name="Path 59" d="M164.729,24.462a5.124,5.124,0,0,1-2.4-.544,4.205,4.205,0,0,1-1.611-1.531,4.339,4.339,0,0,1-.584-2.256V14.452h3.081v5.639a2.112,2.112,0,0,0,.161.866,1.328,1.328,0,0,0,.523.564,1.6,1.6,0,0,0,.826.2,1.431,1.431,0,0,0,1.088-.423,1.728,1.728,0,0,0,.4-1.208V14.452H169.3v5.659a4.378,4.378,0,0,1-.584,2.276,4.205,4.205,0,0,1-1.611,1.531A5,5,0,0,1,164.729,24.462Z" transform="translate(-58.441 -5.274)" fill="#007dfc"/>
  <path id="Path_60" data-name="Path 60" d="M180.06,14.337h-3.081v9.788h3.081V18.4a1.646,1.646,0,0,1,.2-.846,1.468,1.468,0,0,1,.584-.524,1.672,1.672,0,0,1,.826-.2,1.54,1.54,0,0,1,1.108.423,1.438,1.438,0,0,1,.464,1.148v5.72h3.081V18.4a1.646,1.646,0,0,1,.2-.846,1.464,1.464,0,0,1,.584-.524,1.67,1.67,0,0,1,.826-.2,1.54,1.54,0,0,1,1.108.423,1.44,1.44,0,0,1,.463,1.148v5.72h3.082V18.062a3.974,3.974,0,0,0-.524-2.094,3.364,3.364,0,0,0-1.39-1.349,4.022,4.022,0,0,0-1.994-.483,4.271,4.271,0,0,0-2.074.5,3.763,3.763,0,0,0-1.052.828,3.425,3.425,0,0,0-1.022-.868,3.608,3.608,0,0,0-1.832-.463,4.075,4.075,0,0,0-1.953.463,3.374,3.374,0,0,0-.685.462Z" transform="translate(-64.587 -5.159)" fill="#007dfc"/>
</svg>
