<svg xmlns="http://www.w3.org/2000/svg" xmlns:xlink="http://www.w3.org/1999/xlink" width="136" height="136" viewBox="0 0 136 136">
  <defs>
    <clipPath id="clip-path">
      <rect id="Rectangle_62" data-name="Rectangle 62" width="136" height="136" transform="translate(0.029 0.029)" fill="none"/>
    </clipPath>
  </defs>
  <g id="Group_35" data-name="Group 35" transform="translate(-0.491 -0.991)">
    <rect id="Rectangle_60" data-name="Rectangle 60" width="136" height="136" transform="translate(0.491 0.991)" fill="#f9b629"/>
    <g id="Group_34" data-name="Group 34" transform="translate(0.462 0.962)">
      <g id="Group_33" data-name="Group 33" clip-path="url(#clip-path)">
        <path id="Path_88" data-name="Path 88" d="M54.645,42.863a10.6,10.6,0,0,1,1.394,5.579,8.5,8.5,0,0,1-2.415,6.411,8.37,8.37,0,0,1-6.062,2.334H46.7a7.383,7.383,0,0,1-6.116-2.6,9.659,9.659,0,0,1-2.092-6.25V45.384H43.11v2.521a3.566,3.566,0,0,0,.752,2.387,2.723,2.723,0,0,0,2.2.885,3.111,3.111,0,0,0,2.172-.8,2.575,2.575,0,0,0,.886-1.985,4.031,4.031,0,0,0-.752-2.173,8.176,8.176,0,0,0-2.36-2.226q-6.76-4.506-6.759-11.7a7.535,7.535,0,0,1,.885-3.594,6.771,6.771,0,0,1,2.629-2.682,7.989,7.989,0,0,1,4.1-1.02,7.508,7.508,0,0,1,5.713,2.065,7.815,7.815,0,0,1,1.958,5.606v3.058H49.709V33.206a2.11,2.11,0,0,0-.7-1.743A2.485,2.485,0,0,0,47.4,30.9a2.015,2.015,0,0,0-1.475.617,2.284,2.284,0,0,0-.616,1.69,3.934,3.934,0,0,0,1.126,2.576,12.214,12.214,0,0,0,2.9,2.36,15.763,15.763,0,0,1,5.311,4.721" transform="translate(-14.768 -10.162)" fill="#171715"/>
        <path id="Path_89" data-name="Path 89" d="M82.945,56.968H75.972l-.43-3.434H71.948l-.375,3.434h-5.1l4.506-31.116h6.491Zm-8.1-7.3-1.181-9.121h-.053l-1.288,9.121Z" transform="translate(-25.15 -10.479)" fill="#171715"/>
        <path id="Path_90" data-name="Path 90" d="M101.544,32.4v6.331h3.809v5.74H101.6v12.5H94.409V25.852h14.216V32.4Z" transform="translate(-35.515 -10.479)" fill="#171715"/>
        <path id="Path_91" data-name="Path 91" d="M126.429,32.4v6.331h3.809v5.74h-3.755v6.17h7.027v6.33H119.294V25.852H133.51V32.4Z" transform="translate(-44.749 -10.479)" fill="#171715"/>
        <path id="Path_92" data-name="Path 92" d="M153.162,25.851a6.977,6.977,0,0,1,5.445,2.226,7.9,7.9,0,0,1,2.012,5.5,10.475,10.475,0,0,1-.7,4.533,4.507,4.507,0,0,1-2.415,2.012v.108a5.641,5.641,0,0,1,2.442,1.877,4.46,4.46,0,0,1,.778,2.79q-.161,6.6-.108,8.047a14.729,14.729,0,0,0,.805,4.024h-6.6a4.265,4.265,0,0,1-.671-1.824,13.66,13.66,0,0,1-.241-2.521l.053-7.511a1.634,1.634,0,0,0-.455-1.207,1.566,1.566,0,0,0-1.153-.456h-1.288V56.967H144.2V25.851Zm-1.5,12.286a2.279,2.279,0,0,0,1.744-.805,2.947,2.947,0,0,0,.616-1.931v-.966q0-2.842-2.36-2.843h-.7v6.545Z" transform="translate(-53.992 -10.479)" fill="#171715"/>
        <path id="Path_93" data-name="Path 93" d="M38.7,80.728h6.281l2.077,14.784H47.1l1.836-14.784h6.281L57.3,95.513h.048L59.18,80.728H63.77l-4.058,28.022H53.866L51.45,95.03l-1.981,13.721H43.623Z" transform="translate(-14.842 -30.842)" fill="#171715"/>
        <path id="Path_94" data-name="Path 94" d="M79.811,89.236a10.582,10.582,0,0,1,2.005-6.716,6.949,6.949,0,0,1,5.822-2.56A6.587,6.587,0,0,1,93.29,82.5a11.04,11.04,0,0,1,1.884,6.74V99.672a11.042,11.042,0,0,1-1.884,6.74,6.588,6.588,0,0,1-5.652,2.536,6.948,6.948,0,0,1-5.822-2.561,10.58,10.58,0,0,1-2.005-6.716ZM86,100.784q0,2.416,1.5,2.416,1.546,0,1.546-2.416V88.125q0-2.415-1.546-2.416-1.5,0-1.5,2.416Z" transform="translate(-30.098 -30.556)" fill="#171715"/>
        <path id="Path_95" data-name="Path 95" d="M114.9,80.728a6.284,6.284,0,0,1,4.9,2.005,7.112,7.112,0,0,1,1.812,4.952,9.437,9.437,0,0,1-.628,4.082,4.058,4.058,0,0,1-2.174,1.812v.1a5.084,5.084,0,0,1,2.2,1.691,4.014,4.014,0,0,1,.7,2.513q-.145,5.943-.1,7.247a13.324,13.324,0,0,0,.725,3.624H116.4a3.854,3.854,0,0,1-.6-1.643,12.327,12.327,0,0,1-.217-2.271l.048-6.764a1.472,1.472,0,0,0-.411-1.087,1.408,1.408,0,0,0-1.038-.411h-1.16v12.176h-6.184V80.728Zm-1.352,11.064a2.052,2.052,0,0,0,1.57-.725,2.654,2.654,0,0,0,.555-1.74v-.87q0-2.559-2.126-2.56h-.628v5.894Z" transform="translate(-40.125 -30.841)" fill="#171715"/>
        <path id="Path_96" data-name="Path 96" d="M146.171,102.856v5.894H133.56l.048-28.023h6.233v22.129Z" transform="translate(-50.042 -30.841)" fill="#171715"/>
        <path id="Path_97" data-name="Path 97" d="M170.581,99.861a10.087,10.087,0,0,1-1.112,4.952,7.262,7.262,0,0,1-2.9,2.971,7.9,7.9,0,0,1-3.817.967h-7.3V80.728h8.7A5.7,5.7,0,0,1,168.72,82.9q1.811,2.175,1.811,6.523Zm-9.035,3.72a3.967,3.967,0,0,0,2.005-.483,1.529,1.529,0,0,0,.845-1.4V88.024a1.661,1.661,0,0,0-.7-1.594,4.618,4.618,0,0,0-2.15-.386Z" transform="translate(-58.168 -30.841)" fill="#171715"/>
        <path id="Path_98" data-name="Path 98" d="M44.039,134.49v3.534h2.126v3.2h-2.1v6.979H40.056V130.837h7.937v3.653Z" transform="translate(-15.347 -49.435)" fill="#171715"/>
        <path id="Path_99" data-name="Path 99" d="M53.009,136.11a6.563,6.563,0,0,1,1.243-4.163,4.309,4.309,0,0,1,3.609-1.587,4.086,4.086,0,0,1,3.5,1.572,6.844,6.844,0,0,1,1.168,4.178v6.469a6.844,6.844,0,0,1-1.168,4.178,4.087,4.087,0,0,1-3.5,1.572,4.307,4.307,0,0,1-3.609-1.587,6.561,6.561,0,0,1-1.243-4.163Zm3.833,7.158q0,1.5.929,1.5.958,0,.958-1.5v-7.847q0-1.5-.958-1.5-.929,0-.929,1.5Z" transform="translate(-20.153 -49.258)" fill="#171715"/>
        <path id="Path_100" data-name="Path 100" d="M75.01,130.836a3.9,3.9,0,0,1,3.04,1.243,4.413,4.413,0,0,1,1.123,3.07,5.843,5.843,0,0,1-.39,2.531,2.515,2.515,0,0,1-1.348,1.123v.06a3.146,3.146,0,0,1,1.363,1.048,2.487,2.487,0,0,1,.435,1.557q-.09,3.684-.06,4.493a8.21,8.21,0,0,0,.449,2.246H75.939a2.378,2.378,0,0,1-.375-1.018,7.616,7.616,0,0,1-.135-1.408l.03-4.193a.913.913,0,0,0-.254-.674.876.876,0,0,0-.644-.255h-.719v7.547H70.009V130.836Zm-.838,6.859a1.272,1.272,0,0,0,.974-.449,1.646,1.646,0,0,0,.344-1.078v-.54q0-1.587-1.318-1.587h-.389v3.654Z" transform="translate(-26.461 -49.435)" fill="#171715"/>
        <path id="Path_101" data-name="Path 101" d="M106.812,169.856H98.019l-.541-4.329H92.946l-.473,4.329H86.047l5.682-39.231h8.184Zm-10.213-9.2-1.488-11.5h-.067l-1.624,11.5Z" transform="translate(-32.412 -49.356)" fill="#171715"/>
        <path id="Path_102" data-name="Path 102" d="M138.544,161.6v8.252H120.891l.067-39.231h8.726V161.6Z" transform="translate(-45.341 -49.356)" fill="#171715"/>
        <path id="Path_103" data-name="Path 103" d="M169.087,161.6v8.252H151.433l.068-39.231h8.725V161.6Z" transform="translate(-56.674 -49.356)" fill="#171715"/>
        <rect id="Rectangle_61" data-name="Rectangle 61" width="28.419" height="8.252" transform="translate(24.709 102.066)" fill="#171715"/>
      </g>
    </g>
  </g>
</svg>
